<?xml version="1.0" encoding="UTF-8" standalone="no"?>
<!-- Generator: Adobe Illustrator 19.0.0, SVG Export Plug-In . SVG Version: 6.00 Build 0)  -->

<svg
   version="1.1"
   id="Layer_1"
   x="0px"
   y="0px"
   viewBox="0 0 300.528 300.528"
   style="enable-background:new 0 0 300.528 300.528;"
   xml:space="preserve"
   sodipodi:docname="skaterLeft.svg"
   inkscape:version="1.1.1 (3bf5ae0d25, 2021-09-20)"
   xmlns:inkscape="http://www.inkscape.org/namespaces/inkscape"
   xmlns:sodipodi="http://sodipodi.sourceforge.net/DTD/sodipodi-0.dtd"
   xmlns="http://www.w3.org/2000/svg"
   xmlns:svg="http://www.w3.org/2000/svg"><defs
   id="defs44" /><sodipodi:namedview
   id="namedview42"
   pagecolor="#ffffff"
   bordercolor="#666666"
   borderopacity="1.0"
   inkscape:pageshadow="2"
   inkscape:pageopacity="0.0"
   inkscape:pagecheckerboard="0"
   showgrid="false"
   inkscape:zoom="2.7684607"
   inkscape:cx="150.0834"
   inkscape:cy="150.44461"
   inkscape:window-width="1920"
   inkscape:window-height="1017"
   inkscape:window-x="-8"
   inkscape:window-y="515"
   inkscape:window-maximized="1"
   inkscape:current-layer="Layer_1" />
<g
   id="XMLID_1144_"
   transform="matrix(-1,0,0,1,300.52982,0)">
	<g
   id="g8">
		<g
   id="g6">
			<circle
   cx="149.007"
   cy="22.577999"
   r="22.577999"
   id="circle2" />
			<path
   d="m 223.074,261.646 h -48.346 c 1.933,-2.086 3.14,-4.857 3.182,-7.924 l 0.839,-61.045 c 0.009,-0.628 -0.032,-1.257 -0.123,-1.879 l -6.557,-45.082 0.251,-16.679 -5.597,-0.477 c -9.416,-0.803 -15.469,-7.892 -16.73,-12.431 l -11.192,-40.298 20.655,37.67 c 1.647,3.002 4.685,4.984 8.102,5.275 l 40.721,3.468 c 5.673,0.478 10.584,-3.731 11.061,-9.324 0.481,-5.65 -3.734,-10.582 -9.324,-11.061 L 174.759,98.856 156.055,64.743 173.02,82.71 173.228,68.938 c 0.127,-8.418 -6.591,-15.348 -15.01,-15.48 -11.44,-0.255 -23.992,-0.376 -28.832,-0.191 -2.637,0.346 -6.27,0.88 -11.37,3.651 L 85.28,74.408 c -2.519,1.346 -4.361,3.684 -5.079,6.449 l -11.17,42.959 c -1.422,5.467 1.858,11.052 7.327,12.474 5.47,1.422 11.053,-1.861 12.473,-7.327 l 10.041,-38.622 16.456,-8.792 -0.137,68.907 3.431,28.796 -37.136,-3.53 c -6.55,-0.622 -12.367,4.182 -12.99,10.734 -0.622,6.551 4.183,12.366 10.734,12.99 l 51.843,4.929 c 3.593,0.341 7.139,-0.963 9.653,-3.537 2.517,-2.578 3.732,-6.156 3.307,-9.734 l -4.797,-40.268 9.519,0.15 6.153,42.308 -0.826,60.102 c -0.044,3.184 1.173,6.086 3.179,8.251 H 96.902 c -4.977,0 -9.012,4.035 -9.012,9.012 0,4.977 4.035,9.012 9.012,9.012 h 7.316 c -0.902,1.896 -1.408,4.015 -1.408,6.251 0,8.053 6.552,14.605 14.606,14.605 8.054,0 14.606,-6.552 14.606,-14.605 0,-2.235 -0.506,-4.355 -1.408,-6.251 h 54.716 c -0.902,1.896 -1.408,4.015 -1.408,6.251 0,8.053 6.552,14.605 14.606,14.605 8.053,0 14.605,-6.552 14.605,-14.605 0,-2.235 -0.506,-4.355 -1.408,-6.251 h 11.351 c 4.977,0 9.012,-4.035 9.012,-9.012 0,-4.977 -4.036,-9.013 -9.014,-9.013 z m -105.658,27.789 c -1.938,0 -3.513,-1.576 -3.513,-3.514 0,-1.937 1.576,-3.513 3.513,-3.513 1.937,0 3.513,1.576 3.513,3.513 0.001,1.938 -1.575,3.514 -3.513,3.514 z m 81.11,0 c -1.938,0 -3.513,-1.576 -3.513,-3.514 0,-1.937 1.576,-3.513 3.513,-3.513 1.937,0 3.513,1.576 3.513,3.513 0.001,1.938 -1.575,3.514 -3.513,3.514 z"
   id="path4" />
		</g>
	</g>
</g>
<g
   id="g11">
</g>
<g
   id="g13">
</g>
<g
   id="g15">
</g>
<g
   id="g17">
</g>
<g
   id="g19">
</g>
<g
   id="g21">
</g>
<g
   id="g23">
</g>
<g
   id="g25">
</g>
<g
   id="g27">
</g>
<g
   id="g29">
</g>
<g
   id="g31">
</g>
<g
   id="g33">
</g>
<g
   id="g35">
</g>
<g
   id="g37">
</g>
<g
   id="g39">
</g>
</svg>
